<svg width="53" height="16" viewBox="0 0 53 16" fill="none" xmlns="http://www.w3.org/2000/svg">
<path id="Line 1" d="M52.7071 8.70711C53.0976 8.31658 53.0976 7.68342 52.7071 7.29289L46.3431 0.928932C45.9526 0.538408 45.3195 0.538408 44.9289 0.928932C44.5384 1.31946 44.5384 1.95262 44.9289 2.34315L50.5858 8L44.9289 13.6569C44.5384 14.0474 44.5384 14.6805 44.9289 15.0711C45.3195 15.4616 45.9526 15.4616 46.3431 15.0711L52.7071 8.70711ZM0 9H1.85714V7H0V9ZM5.57143 9H9.28571V7H5.57143V9ZM13 9H16.7143V7H13V9ZM20.4286 9H24.1429V7H20.4286V9ZM27.8571 9H31.5714V7H27.8571V9ZM35.2857 9H39V7H35.2857V9ZM42.7143 9H46.4286V7H42.7143V9ZM50.1429 9H52V7H50.1429V9Z" fill="#BFC8DA"/>
</svg>
